<?xml version="1.0" standalone="no"?>
<!DOCTYPE svg PUBLIC "-//W3C//DTD SVG 20010904//EN"
 "http://www.w3.org/TR/2001/REC-SVG-20010904/DTD/svg10.dtd">
<svg version="1.0" xmlns="http://www.w3.org/2000/svg"
 width="512.000000pt" height="512.000000pt" viewBox="0 0 512.000000 512.000000"
 preserveAspectRatio="xMidYMid meet">

<g transform="translate(0.000000,512.000000) scale(0.100000,-0.100000)"
fill="#000000" stroke="none">
<path d="M3771 5107 c-79 -30 -141 -108 -156 -194 l-7 -43 -1011 -2 -1012 -3
-50 -23 c-27 -13 -67 -40 -88 -60 -63 -60 -80 -103 -86 -216 l-6 -100 -80 -13
c-172 -28 -467 -145 -532 -209 -46 -47 -17 -124 47 -124 17 0 62 18 100 40 97
54 233 107 337 130 132 29 133 29 133 -27 1 -27 7 -66 15 -88 8 -22 15 -41 15
-41 0 -1 -26 -4 -58 -8 -82 -9 -266 -74 -357 -127 -270 -154 -450 -392 -538
-709 -17 -63 -21 -104 -21 -255 0 -163 3 -189 27 -278 54 -200 158 -377 307
-521 125 -121 254 -201 405 -253 396 -136 826 -42 1128 246 403 385 461 991
138 1449 -61 85 -180 205 -258 259 l-56 38 144 3 143 3 58 -58 c115 -114 228
-297 286 -463 55 -156 67 -237 67 -435 -1 -162 -3 -191 -28 -288 -126 -501
-503 -865 -1010 -974 -115 -25 -380 -25 -497 0 -532 114 -933 524 -1025 1051
-20 115 -19 317 1 437 39 224 143 448 289 618 58 68 67 85 59 116 -8 32 -40
55 -77 55 -22 0 -40 -12 -73 -47 -174 -189 -307 -470 -349 -738 -21 -134 -16
-397 10 -515 62 -283 192 -518 399 -725 212 -211 437 -334 729 -397 124 -27
404 -32 527 -9 111 20 259 66 354 110 l85 39 7 -31 c32 -155 137 -366 261
-530 l44 -57 -500 0 -499 0 -7 43 c-22 129 -138 220 -262 203 -26 -3 -62 -15
-81 -27 -66 -38 -552 -421 -590 -464 -47 -54 -72 -123 -72 -201 0 -80 23 -143
72 -198 49 -57 557 -452 613 -477 133 -61 294 34 320 189 l7 42 654 0 c555 0
659 2 683 15 46 23 54 66 20 109 l-20 26 -688 0 -688 0 -33 -23 c-49 -33 -72
-69 -81 -129 -6 -38 -16 -59 -34 -76 -51 -43 -62 -37 -355 190 -151 117 -285
228 -297 247 -30 44 -31 122 -4 167 11 18 129 117 264 222 287 224 312 242
343 242 41 0 74 -39 83 -98 9 -60 32 -96 81 -129 l33 -23 596 0 596 -1 63 -48
c221 -168 504 -275 765 -288 l117 -6 0 -71 c0 -79 -18 -121 -67 -153 -23 -15
-54 -18 -220 -21 l-193 -4 -20 -25 c-25 -33 -26 -67 0 -93 29 -29 54 -32 247
-28 160 3 183 6 230 27 58 26 126 93 151 149 9 21 18 78 21 131 l6 95 80 13
c44 7 124 27 178 44 512 159 879 566 994 1100 25 119 26 439 0 557 -63 294
-190 527 -401 737 -212 211 -431 331 -727 397 -87 19 -133 23 -279 23 -236 0
-389 -30 -588 -117 -51 -22 -94 -39 -96 -37 -2 2 -20 53 -40 112 -56 169 -140
324 -253 465 l-26 32 501 0 500 0 7 -42 c14 -82 60 -145 135 -184 46 -24 153
-25 196 -2 39 21 525 397 578 446 118 112 129 307 25 426 -43 49 -543 442
-598 471 -44 22 -136 28 -180 12z m379 -349 c151 -117 285 -228 297 -247 32
-47 32 -125 1 -171 -13 -19 -129 -116 -258 -217 -275 -215 -316 -243 -346
-243 -41 0 -74 39 -83 98 -9 57 -30 93 -75 126 -27 21 -37 21 -1054 26 l-1027
5 -33 23 c-58 42 -62 61 -62 269 0 207 6 230 67 270 26 17 86 18 1054 23 1018
5 1028 5 1055 26 45 33 66 69 75 126 6 38 16 59 34 76 51 43 62 37 355 -190z
m-2381 -797 c437 -128 729 -528 708 -971 -7 -142 -33 -245 -93 -369 -127 -265
-356 -452 -640 -523 -125 -31 -323 -31 -447 0 -312 78 -570 304 -676 594 -48
128 -55 178 -55 343 0 191 17 264 93 420 134 273 398 471 698 525 89 16 329 5
412 -19z m2091 -606 c455 -99 819 -421 964 -855 107 -320 86 -672 -58 -967
-127 -261 -323 -462 -575 -592 -195 -100 -366 -141 -592 -141 -206 0 -368 35
-555 120 -166 75 -366 239 -482 395 -93 126 -188 333 -220 482 l-9 41 82 65
83 65 7 -54 c12 -99 45 -197 105 -319 149 -299 397 -499 730 -587 107 -28 326
-35 447 -14 446 78 796 412 901 861 12 51 16 115 16 240 -1 150 -4 181 -27
268 -53 198 -156 374 -304 518 -163 159 -337 251 -568 301 -100 21 -343 16
-447 -10 -118 -29 -228 -73 -318 -126 -41 -24 -76 -41 -77 -37 -1 3 -3 49 -6
102 l-4 97 73 36 c125 61 243 100 379 122 103 17 353 11 455 -11z m-29 -334
c349 -90 615 -359 705 -711 28 -111 26 -354 -4 -465 -89 -324 -345 -585 -668
-680 -121 -36 -309 -45 -439 -20 -184 34 -347 118 -482 248 -181 174 -282 387
-299 632 l-7 90 68 100 c107 157 190 347 225 517 10 50 17 62 58 96 131 110
305 185 497 216 65 10 271 -3 346 -23z"/>
<path d="M1345 3720 c-10 -11 -20 -42 -23 -70 -4 -45 -7 -50 -28 -50 -13 0
-33 -9 -44 -20 -19 -19 -20 -33 -20 -548 0 -491 1 -530 18 -545 9 -8 29 -18
43 -22 23 -6 27 -13 32 -53 9 -81 75 -114 129 -65 11 10 18 34 20 67 l3 51 40
0 40 0 5 -57 c6 -64 25 -87 73 -88 47 0 73 37 79 119 3 29 8 35 45 50 103 39
178 121 210 230 32 112 -8 252 -98 336 l-48 45 32 61 c28 55 32 72 32 143 -1
68 -5 89 -27 132 -25 48 -84 111 -126 133 -15 8 -21 24 -24 70 -5 72 -26 101
-73 101 -50 0 -69 -21 -75 -81 l-5 -54 -40 0 -40 0 -3 50 c-2 27 -10 58 -19
67 -22 25 -85 24 -108 -2z m326 -293 c96 -64 87 -212 -15 -261 -26 -12 -64
-16 -155 -16 l-121 0 0 150 0 150 129 0 c116 0 131 -2 162 -23z m22 -438 c155
-43 183 -263 44 -343 -38 -21 -58 -24 -199 -29 l-158 -6 0 194 0 195 138 0
c75 0 154 -5 175 -11z"/>
<path d="M3550 2752 c-16 -13 -24 -32 -27 -69 -5 -50 -7 -52 -49 -68 -125 -48
-199 -203 -160 -336 19 -66 65 -116 148 -162 l58 -32 0 -197 c0 -154 -3 -198
-13 -198 -7 0 -46 16 -87 35 -64 31 -77 34 -101 25 -37 -16 -54 -58 -38 -94
15 -32 128 -92 193 -101 l44 -7 4 -49 c6 -60 30 -89 73 -89 45 0 67 29 73 95
3 39 9 55 19 55 27 0 108 49 145 87 60 62 93 144 93 233 -1 144 -78 239 -237
293 -16 6 -18 23 -18 161 0 171 -2 168 62 124 37 -26 93 -24 112 4 36 51 10
97 -78 139 -33 16 -69 29 -78 29 -14 0 -18 8 -18 35 0 87 -64 133 -120 87z
m-32 -443 l-3 -62 -32 27 c-54 45 -52 120 4 178 l28 29 3 -55 c2 -30 2 -83 0
-117z m230 -332 c54 -58 46 -161 -18 -228 -20 -22 -42 -39 -48 -39 -9 0 -12
46 -12 160 l0 161 28 -15 c15 -8 38 -25 50 -39z"/>
</g>
</svg>
